<svg width="192" height="192" viewBox="0 0 80 80" xmlns="http://www.w3.org/2000/svg">
  <defs>
    <linearGradient id="bg" x1="0%" y1="0%" x2="100%" y2="100%">
      <stop offset="0%" stop-color="#0a1628"/>
      <stop offset="100%" stop-color="#0c1a2e"/>
    </linearGradient>
    <linearGradient id="s" x1="0%" y1="0%" x2="100%" y2="100%">
      <stop offset="0%" stop-color="#3b82f6"/>
      <stop offset="100%" stop-color="#22d3ee"/>
    </linearGradient>
  </defs>
  <rect width="80" height="80" rx="16" fill="url(#bg)"/>
  <rect x="30" y="12" width="34" height="8" rx="4" fill="#1e3a5f" opacity="0.8"/>
  <rect x="14" y="24" width="50" height="8" rx="4" fill="#1e3a5f" opacity="0.7"/>
  <rect x="14" y="36" width="52" height="8" rx="4" fill="#1e3a5f" opacity="0.6"/>
  <rect x="14" y="48" width="50" height="8" rx="4" fill="#1e3a5f" opacity="0.5"/>
  <rect x="14" y="60" width="34" height="8" rx="4" fill="#1e3a5f" opacity="0.4"/>
  <path d="M52 20 C52 20 52 13 40 13 C28 13 24 20 24 27 C24 34 30 37 40 40 C50 43 56 46 56 53 C56 60 52 67 40 67 C28 67 24 60 24 60" fill="none" stroke="url(#s)" stroke-width="6.5" stroke-linecap="round"/>
</svg>
