<?xml version="1.0" encoding="UTF-8"?>
<svg version="1.1" xmlns="http://www.w3.org/2000/svg" width="1600" height="1600">
<path d="M0 0 C4.87259455 0.00679021 9.74515852 -0.00399607 14.61774625 -0.01239584 C23.13354172 -0.0246984 31.64928204 -0.0260031 40.16508337 -0.01984541 C52.82926651 -0.01071279 65.49339912 -0.01881962 78.1575784 -0.03013665 C100.78460979 -0.04975943 123.41161821 -0.05215935 146.03865607 -0.04694145 C165.8448378 -0.04237657 185.65101046 -0.04299304 205.4571919 -0.04878179 C208.1184485 -0.04953868 210.77970509 -0.05029466 213.44096169 -0.05104974 C217.45171912 -0.05219351 221.46247655 -0.05334469 225.47323397 -0.05450898 C262.74142234 -0.06525605 300.00960789 -0.06997765 337.27779718 -0.06203882 C337.97938746 -0.06189052 338.68097774 -0.06174221 339.40382833 -0.06158941 C347.22617289 -0.05993061 355.04851744 -0.05818102 362.87086197 -0.0563964 C363.5770183 -0.05623537 364.28317464 -0.05607435 365.01072965 -0.05590845 C370.73837658 -0.05460143 370.73837658 -0.05460143 373.57790845 -0.05394726 C418.73184289 -0.04355929 463.88573834 -0.05131946 509.03966756 -0.07494871 C520.41712448 -0.08089284 531.79458141 -0.08678472 543.17203851 -0.09235804 C543.87273561 -0.09270181 544.57343271 -0.09304558 545.29536306 -0.09339976 C566.91580181 -0.10393908 588.53623731 -0.10952155 610.15667863 -0.10991518 C610.83616758 -0.10992796 611.51565652 -0.10994074 612.21573604 -0.10995391 C627.13712913 -0.11018228 642.05852193 -0.10917539 656.97991486 -0.10704486 C662.98445601 -0.10619628 668.98899717 -0.10545215 674.99353834 -0.10472052 C676.30702993 -0.10455071 677.62052152 -0.1043809 678.97381588 -0.10420594 C698.75669085 -0.10190794 718.53954462 -0.10985611 738.32241483 -0.12301199 C760.83545967 -0.13795721 783.34845499 -0.13872108 805.8614988 -0.12094108 C818.44114604 -0.11141369 831.02067764 -0.1127397 843.60031703 -0.13017577 C852.02675991 -0.1407314 860.45311548 -0.1364728 868.87954987 -0.12069573 C873.66488591 -0.112135 878.44999685 -0.10946157 883.23532059 -0.12496505 C966.4619463 -0.3755421 1046.79797082 24.05290018 1111.6937203 77.39160402 C1112.22626424 77.82650148 1112.75880819 78.26139895 1113.30748983 78.70947512 C1128.06816547 90.80919739 1142.29726035 103.86295297 1154.6937203 118.39160402 C1155.48262655 119.29136965 1156.2715328 120.19113527 1157.0843453 121.11816652 C1178.12751216 145.29717786 1194.93785847 172.50638581 1208.6937203 201.39160402 C1209.01550253 202.06562258 1209.33728475 202.73964113 1209.66881796 203.43408449 C1233.10884115 253.05326835 1241.19882156 305.45796665 1241.08532432 359.82014992 C1241.07852899 364.69293692 1241.08932288 369.56569347 1241.09772016 374.43847366 C1241.110018 382.9530564 1241.11132951 391.46758398 1241.10516973 399.98217257 C1241.09603405 412.64453637 1241.10414635 425.30684965 1241.11546097 437.96920959 C1241.13507991 460.59320083 1241.13748444 483.21716909 1241.13226577 505.84116681 C1241.12770037 525.64409861 1241.12831802 545.44702135 1241.13410612 565.24995287 C1241.134863 567.91107261 1241.13561898 570.57219234 1241.13637406 573.23331208 C1241.13751783 577.24388562 1241.13866902 581.25445915 1241.13983331 585.26503268 C1241.1505797 622.52929319 1241.15530264 659.79355087 1241.14736314 697.05781229 C1241.14714069 698.10999867 1241.14714069 698.10999867 1241.14691373 699.18344135 C1241.14525494 707.00426041 1241.14350535 714.82507946 1241.14172072 722.64589849 C1241.1415597 723.35191379 1241.14139867 724.05792908 1241.14123277 724.78533878 C1241.13992577 730.51174555 1241.13992577 730.51174555 1241.13927158 733.35080293 C1241.12888307 778.49804434 1241.1366451 823.64524674 1241.16027303 868.79248293 C1241.16621718 880.16890002 1241.17210906 891.54531713 1241.17768236 902.92173441 C1241.17802613 903.62236953 1241.1783699 904.32300466 1241.17872409 905.04487115 C1241.18926336 926.66331956 1241.19484587 948.28176472 1241.1952395 969.9002157 C1241.19525228 970.57963753 1241.19526507 971.25905935 1241.19527824 971.95906971 C1241.1955066 986.87894003 1241.19449972 1001.79881007 1241.19236918 1016.71868024 C1241.19152061 1022.72257368 1241.19077648 1028.72646713 1241.19004484 1034.73036059 C1241.18987503 1036.04370567 1241.18970522 1037.35705076 1241.18953027 1038.71019419 C1241.18723231 1058.49042605 1241.19518018 1078.27063671 1241.20833631 1098.05086382 C1241.22328139 1120.56022463 1241.22404554 1143.06953593 1241.2062654 1165.57889572 C1241.19673805 1178.1563263 1241.19806396 1190.73364123 1241.21550009 1203.31106397 C1241.22605573 1211.73599383 1241.22179711 1220.16083638 1241.20602005 1228.58575776 C1241.19745936 1233.37021202 1241.1947858 1238.15444114 1241.21028937 1242.9388831 C1241.43904289 1318.90257564 1221.50020619 1392.28583981 1176.6937203 1454.39160402 C1176.26575155 1454.98537844 1175.8377828 1455.57915285 1175.3968453 1456.19092043 C1168.1187566 1466.21896878 1160.2853014 1475.77131227 1151.93981405 1484.92676027 C1150.44192518 1486.57053049 1148.95488863 1488.22425559 1147.47887655 1489.88769777 C1139.72636515 1498.6211948 1131.59870747 1506.83490716 1122.6937203 1514.39160402 C1121.34793905 1515.57109621 1121.34793905 1515.57109621 1119.9749703 1516.77441652 C1095.79736029 1537.82348222 1068.58115504 1554.63468664 1039.6937203 1568.39160402 C1039.01970174 1568.71338625 1038.34568319 1569.03516848 1037.65123983 1569.36670168 C988.01640423 1592.81411873 935.60046633 1600.90067357 881.22176488 1600.77700669 C876.34275954 1600.76929768 871.46378153 1600.77921488 866.58478023 1600.78673668 C858.05948329 1600.7975046 849.53424347 1600.79728475 841.00894399 1600.7895952 C828.33102759 1600.77819152 815.65315888 1600.784078 802.97524274 1600.79322013 C780.32548572 1600.80897644 757.67575417 1600.80766455 735.02599476 1600.79898339 C715.20492772 1600.79142408 695.38386999 1600.7894725 675.5628018 1600.79305132 C674.24585618 1600.79328048 672.92891057 1600.79350963 671.57205751 1600.79374573 C666.22558753 1600.79467981 660.87911755 1600.79563324 655.53264757 1600.79662502 C640.58960427 1600.79937526 625.64656093 1600.80108764 610.7035174 1600.80198343 C609.68304137 1600.80204484 609.68304137 1600.80204484 608.64194966 1600.80210749 C586.98290731 1600.80333426 565.32386817 1600.7999601 543.66482683 1600.7934347 C542.61198481 1600.79311858 542.61198481 1600.79311858 541.53787326 1600.79279607 C530.14145316 1600.78936173 518.74503313 1600.78570311 507.3486131 1600.78202555 C462.15398821 1600.7674571 416.95938999 1600.76813484 371.76476522 1600.78271731 C360.37273358 1600.78638123 348.98070193 1600.79001453 337.58867021 1600.7934347 C336.53632706 1600.79375171 336.53632706 1600.79375171 335.46272444 1600.79407514 C313.82419256 1600.8005489 292.18566289 1600.80328553 270.54713007 1600.80198343 C269.8673335 1600.80194268 269.18753693 1600.80190193 268.48714046 1600.80185994 C253.56097256 1600.80092229 238.63480488 1600.79902094 223.7086372 1600.79625193 C217.70269916 1600.79514174 211.6967611 1600.79409644 205.69082304 1600.79305132 C203.72009746 1600.79269547 203.72009746 1600.79269547 201.70955925 1600.79233244 C181.9044856 1600.78892577 162.09942231 1600.79290009 142.29435011 1600.80048998 C119.76686206 1600.80908035 97.23940336 1600.80689637 74.71191896 1600.79064775 C62.11748339 1600.78186231 49.52311143 1600.78122992 36.92867756 1600.79258627 C28.50134694 1600.7993446 20.07406701 1600.79507079 11.64674386 1600.78207196 C6.85520555 1600.77498023 2.06379302 1600.77240136 -2.72774105 1600.78328991 C-22.80703957 1600.82558972 -42.40811146 1600.45426524 -62.3062797 1597.39160402 C-63.1010328 1597.26971505 -63.8957859 1597.14782608 -64.71462243 1597.0222435 C-69.05812173 1596.34320506 -73.37046133 1595.56632799 -77.6812797 1594.70410402 C-78.96671671 1594.44919191 -80.25215372 1594.19427981 -81.57654337 1593.93164309 C-141.86904631 1581.69597063 -198.37539548 1553.0814661 -243.84143595 1511.63769777 C-245.48520617 1510.13980891 -247.13893126 1508.65277236 -248.80237345 1507.17676027 C-257.53587048 1499.42424887 -265.74958284 1491.2965912 -273.3062797 1482.39160402 C-274.09260783 1481.49441652 -274.87893595 1480.59722902 -275.6890922 1479.67285402 C-292.78476767 1460.0362307 -307.12917876 1438.36785707 -319.3062797 1415.39160402 C-319.82569132 1414.41272219 -319.82569132 1414.41272219 -320.35559611 1413.41406496 C-322.78498475 1408.79218564 -325.08198797 1404.11538948 -327.3062797 1399.39160402 C-327.68751994 1398.58223391 -328.06876017 1397.77286379 -328.46155314 1396.93896731 C-348.24987744 1354.38848915 -359.70040216 1307.26777684 -359.56354861 1260.24690302 C-359.56625086 1258.60776521 -359.56982365 1256.96862865 -359.57417308 1255.32949437 C-359.58352946 1250.86669916 -359.58066387 1246.40398667 -359.57561753 1241.94118767 C-359.57232579 1237.06994564 -359.58065417 1232.19872037 -359.58743588 1227.32748385 C-359.59770586 1218.80320995 -359.60058491 1210.27895875 -359.59852366 1201.75467928 C-359.5954658 1189.07776895 -359.60381508 1176.40088362 -359.61427291 1163.72397816 C-359.63359031 1139.7600236 -359.63924032 1115.79607762 -359.64038703 1091.83211619 C-359.64130711 1073.31883369 -359.64542898 1054.80555453 -359.65178828 1036.29227312 C-359.65358345 1030.9577169 -359.6553633 1025.62316068 -359.65713803 1020.28860446 C-359.65735921 1019.62575967 -359.65758039 1018.96291489 -359.65780827 1018.2799839 C-359.67045004 980.31413858 -359.67870722 942.34829438 -359.67779116 904.38244684 C-359.6777596 902.96278808 -359.67772813 901.54312932 -359.67769674 900.12347056 C-359.67754999 893.71446496 -359.67737365 887.30545936 -359.67718898 880.89645377 C-359.67710673 878.03878069 -359.67702643 875.18110762 -359.67694635 872.32343454 C-359.67690556 870.89312007 -359.67686352 869.4628056 -359.67682023 868.03249114 C-359.67546057 822.83170679 -359.69008268 777.6309538 -359.71790079 732.43017824 C-359.72490361 721.04544259 -359.73184287 709.66070691 -359.73842959 698.27597101 C-359.73883534 697.57484007 -359.73924108 696.87370912 -359.73965913 696.15133179 C-359.75210305 674.51696117 -359.75962296 652.88259313 -359.76214556 631.24821909 C-359.76222546 630.56826031 -359.76230536 629.88830153 -359.76238769 629.18773794 C-359.76409483 614.25568561 -359.76461643 599.32363343 -359.76404693 584.39158102 C-359.76382998 578.38250589 -359.76373546 572.37343077 -359.76366572 566.36435564 C-359.76364241 565.04983855 -359.7636191 563.73532146 -359.76359509 562.38097051 C-359.76353367 541.27479963 -359.77627707 520.16865535 -359.79353025 499.06249236 C-359.81052823 477.82845566 -359.81242809 456.59445766 -359.79931161 435.36041791 C-359.79194985 422.76525166 -359.79549695 410.17020335 -359.81519629 397.57504973 C-359.82727069 389.13801823 -359.82452313 380.70107137 -359.81025529 372.26404362 C-359.80255464 367.47253297 -359.80075692 362.68124909 -359.81716999 357.88975519 C-360.08284023 274.78889748 -335.78486989 194.08117455 -282.3062797 129.39160402 C-281.87428263 128.86341066 -281.44228556 128.33521731 -280.99719767 127.79101809 C-268.89522586 113.02509022 -255.83919639 98.79170359 -241.3062797 86.39160402 C-239.95663126 85.20824465 -239.95663126 85.20824465 -238.5797172 84.00097902 C-218.94258409 66.91064133 -197.27997909 52.56735156 -174.3062797 40.39160402 C-173.32739787 39.8721924 -173.32739787 39.8721924 -172.32874064 39.34228762 C-118.20935965 10.89563195 -60.60202239 -0.12640487 0 0 Z " fill="#0F1421" transform="translate(359.30627970118076,-0.3916040239855647)"/>
<path d="M0 0 C3.09523244 0.30784483 6.18940134 0.58414871 9.28955078 0.8359375 C21.61403786 1.88741138 33.68365645 4.26070223 45.78613281 6.76757812 C48.17767397 7.26107712 50.57169102 7.73237027 52.96923828 8.1953125 C108.3076441 19.8455032 163.30998949 48.5860285 198.69189453 93.3671875 C199.48466797 94.33140625 200.27744141 95.295625 201.09423828 96.2890625 C225.49713256 126.66738903 242.5753263 168.94927065 239.69189453 208.3671875 C237.51321287 225.80854614 228.69397898 241.11828074 215.28955078 252.38671875 C200.41033084 263.45570084 183.03416837 268.13045913 164.69189453 266.3671875 C149.11248335 263.90238513 136.69514667 256.49315249 125.69189453 245.3671875 C125.14275391 244.8515625 124.59361328 244.3359375 124.02783203 243.8046875 C114.14728154 233.65995116 109.26289116 218.03192862 107.75439453 204.3671875 C105.93342953 188.32004942 97.06207817 174.66951954 84.69189453 164.3671875 C74.82487802 156.76174224 64.08478973 151.29826004 52.69189453 146.3671875 C51.76634766 145.95726562 50.84080078 145.54734375 49.88720703 145.125 C33.28190427 138.10177359 15.01310976 135.13408176 -2.74560547 132.6796875 C-3.60798828 132.56036865 -4.47037109 132.4410498 -5.35888672 132.31811523 C-17.149479 130.76925608 -28.89091203 130.20403467 -40.77685547 130.1640625 C-41.44585373 130.16123512 -42.11485199 130.15840775 -42.80412292 130.15549469 C-46.35835132 130.14062339 -49.91254054 130.13132319 -53.46679688 130.12695312 C-56.3324893 130.1226108 -59.19787344 130.10886826 -62.06347656 130.0859375 C-129.05103041 129.56139361 -196.47047511 143.56605538 -246.30810547 190.9921875 C-263.72438225 208.94391616 -276.13438333 230.84100206 -284.30810547 254.3671875 C-284.72914551 255.57858398 -284.72914551 255.57858398 -285.15869141 256.81445312 C-289.35160575 269.17095687 -291.85970334 281.63422059 -293.84104919 294.51539612 C-294.27970462 297.19377519 -294.80362552 299.84197824 -295.33862305 302.50244141 C-296.3818769 308.23096651 -296.64699205 313.79248359 -296.67919922 319.60546875 C-296.68822769 320.64752975 -296.69725616 321.68959076 -296.70655823 322.76322937 C-296.72097507 324.95906751 -296.72992595 327.15494776 -296.73364258 329.35083008 C-296.74544041 332.633757 -296.79463092 335.91473924 -296.84521484 339.19726562 C-297.10957569 373.98338839 -285.38655127 404.27372205 -260.99560547 429.0546875 C-204.06236859 485.26072129 -114.72922672 508.66801159 -40.01513672 530.703125 C17.84134228 547.77508128 75.22095113 566.18329472 129.69189453 592.3671875 C131.2796167 593.12418945 131.2796167 593.12418945 132.89941406 593.89648438 C155.84409328 604.88554107 178.11843525 617.34674157 198.69189453 632.3671875 C199.23297852 632.7595459 199.7740625 633.1519043 200.33154297 633.55615234 C210.40903139 640.89165503 220.03688198 648.73059192 229.23876953 657.13671875 C230.83696011 658.58985063 232.45098709 660.02581193 234.08251953 661.44140625 C246.00944344 671.84860921 256.20692228 683.73610305 265.69189453 696.3671875 C266.10503906 696.90746582 266.51818359 697.44774414 266.94384766 698.00439453 C294.77167443 734.50912292 308.27291419 777.30968726 313.69189453 822.3671875 C313.86841553 823.6552832 314.04493652 824.94337891 314.22680664 826.27050781 C314.72364759 830.2549228 314.86903121 834.21775915 314.89501953 838.23046875 C314.90203384 838.96726364 314.90904816 839.70405853 314.91627502 840.46318054 C314.93383137 842.86874512 314.94014159 845.2740609 314.94189453 847.6796875 C314.94290665 848.92963501 314.94290665 848.92963501 314.94393921 850.20483398 C314.8907976 891.97513236 309.21159592 933.73383916 295.69189453 973.3671875 C295.42715332 974.15673828 295.16241211 974.94628906 294.88964844 975.75976562 C278.21993247 1025.06376478 248.93404486 1072.65709636 208.69189453 1106.3671875 C208.12954102 1106.84188477 207.5671875 1107.31658203 206.98779297 1107.80566406 C175.652351 1134.15629475 139.58667321 1154.47204021 100.69189453 1167.3671875 C99.83466797 1167.66109375 98.97744141 1167.955 98.09423828 1168.2578125 C91.67596343 1170.4477139 85.18348489 1172.40794263 78.69189453 1174.3671875 C77.10332642 1174.8478064 77.10332642 1174.8478064 75.48266602 1175.33813477 C67.03952359 1177.82509224 58.58955094 1179.74240264 49.94189453 1181.3671875 C49.27282074 1181.49380768 48.60374695 1181.62042786 47.91439819 1181.75088501 C43.17756412 1182.64577789 38.43617462 1183.51265732 33.69189453 1184.3671875 C32.5770166 1184.56876465 31.46213867 1184.7703418 30.31347656 1184.97802734 C-38.20439918 1197.10066593 -110.37980216 1193.81619112 -178.30810547 1179.3671875 C-179.01 1179.21958984 -179.71189453 1179.07199219 -180.43505859 1178.91992188 C-244.03644279 1165.33806467 -305.51454125 1136.72762917 -355.42773438 1094.93896484 C-357.20610623 1093.45244732 -358.99618947 1091.98128014 -360.78857422 1090.51171875 C-373.64058283 1079.85948723 -386.03442977 1068.1044265 -396.31201172 1054.921875 C-398.53716746 1052.07402402 -400.88802848 1049.35619065 -403.24560547 1046.6171875 C-419.94865029 1026.54241002 -431.30154277 1005.00428969 -429.30810547 978.3671875 C-426.2469782 960.73509442 -416.60392989 945.10062201 -402.30810547 934.3671875 C-385.62139038 923.79730345 -367.91784521 919.69373003 -348.44091797 923.48828125 C-337.37073624 926.59400555 -327.75331861 931.50334773 -319.30810547 939.3671875 C-318.63779297 939.94726562 -317.96748047 940.52734375 -317.27685547 941.125 C-312.26647502 945.71784875 -308.75561998 951.01534796 -305.07617188 956.66845703 C-293.82847292 973.89616127 -278.81949986 988.2249182 -262.30810547 1000.3671875 C-261.20235822 1001.20275658 -260.09688867 1002.03869327 -258.99169922 1002.875 C-219.29753257 1032.4935345 -169.21224412 1049.38190486 -120.30810547 1055.3671875 C-118.35187545 1055.639134 -116.39658274 1055.91688792 -114.44165039 1056.19799805 C-96.71273892 1058.50729848 -78.96881887 1058.55531613 -61.1171875 1058.55249023 C-58.41822597 1058.55240907 -55.71943454 1058.55935183 -53.02050781 1058.57299805 C-37.00065054 1058.65257993 -21.21006645 1058.4150697 -5.30810547 1056.3671875 C-4.5866333 1056.27559357 -3.86516113 1056.18399963 -3.12182617 1056.08963013 C1.53672651 1055.48558722 6.17720176 1054.79120247 10.81689453 1054.0546875 C11.49845612 1053.94703064 12.1800177 1053.83937378 12.88223267 1053.72845459 C24.03184684 1051.95290312 34.90359348 1049.72510458 45.69189453 1046.3671875 C46.92842773 1045.99255371 46.92842773 1045.99255371 48.18994141 1045.61035156 C94.63205988 1031.42066914 134.39753919 1004.742773 157.70800781 961.23144531 C167.84534488 942.02332971 174.67881193 921.82236822 178.33789062 900.40722656 C178.80111948 897.73775051 179.34733158 895.08617447 179.87939453 892.4296875 C185.00607526 862.77059396 185.55174445 825.01020799 172.69189453 797.3671875 C172.26263672 796.39136719 171.83337891 795.41554688 171.39111328 794.41015625 C144.50492462 736.62378456 72.70253361 708.56858307 16.83105469 688.11889648 C13.17658936 686.78717212 9.51838849 685.46595902 5.85882568 684.14831543 C3.70400539 683.37155318 1.55055767 682.59109608 -0.60253906 681.80957031 C-20.26160223 674.6698541 -20.26160223 674.6698541 -40.24951172 668.53125 C-45.14629811 667.15589917 -49.97054369 665.56073542 -54.80810547 663.9921875 C-62.61609307 661.47431554 -70.46034612 659.16636698 -78.37060547 656.9921875 C-139.94287325 639.99505493 -201.52907696 618.69567109 -258.36230469 589.36669922 C-260.45362268 588.29243876 -262.55463792 587.23853395 -264.65576172 586.18359375 C-283.09972976 576.81466926 -300.77154245 565.8010083 -317.30810547 553.3671875 C-317.8440332 552.96725586 -318.37996094 552.56732422 -318.93212891 552.15527344 C-363.275136 518.99647062 -395.8719495 478.45501144 -415.30810547 426.3671875 C-415.82425415 425.03892944 -415.82425415 425.03892944 -416.35083008 423.68383789 C-428.65636517 391.36295516 -430.34741165 355.53818311 -429.30810547 321.3671875 C-429.27088379 320.11647461 -429.23366211 318.86576172 -429.1953125 317.57714844 C-427.43607266 267.68691094 -415.46650996 218.12783452 -393.30810547 173.3671875 C-392.92299805 172.58456543 -392.53789062 171.80194336 -392.14111328 170.99560547 C-380.57112122 147.71776178 -365.47228836 126.8199281 -348.30810547 107.3671875 C-347.84082031 106.83673828 -347.37353516 106.30628906 -346.89208984 105.75976562 C-335.19228848 92.5717622 -322.37159141 80.97749926 -308.30810547 70.3671875 C-307.7194873 69.91633789 -307.13086914 69.46548828 -306.52441406 69.00097656 C-296.55167989 61.37046749 -286.13804083 54.71157246 -275.30810547 48.3671875 C-274.60911133 47.95114258 -273.91011719 47.53509766 -273.18994141 47.10644531 C-224.78426888 18.40895915 -167.03369489 3.9923742 -111.30810547 -0.6328125 C-110.20917969 -0.72449707 -109.11025391 -0.81618164 -107.97802734 -0.91064453 C-71.96764888 -3.77885662 -35.9419902 -3.62701369 0 0 Z " fill="#8794F8" transform="translate(857.30810546875,205.6328125)"/>
<path d="M0 0 C0.33 0 0.66 0 1 0 C1 1.65 1 3.3 1 5 C1.57827971 4.99937608 2.15655942 4.99875216 2.75236276 4.99810933 C65.72279702 4.93031094 128.69323543 4.86749105 191.66369629 4.83062744 C193.07505454 4.8297991 193.07505454 4.8297991 194.51492509 4.82895402 C214.96424745 4.81698187 235.41357021 4.80590122 255.86289355 4.79573868 C265.89150594 4.79074942 275.92011823 4.78556319 285.94873047 4.78027344 C287.44566689 4.77948888 287.44566689 4.77948888 288.97284446 4.77868848 C321.30873347 4.76164873 353.64459449 4.7316077 385.98046655 4.69481112 C419.21491294 4.65706076 452.44934385 4.63245359 485.68381132 4.62434004 C490.37994143 4.62318745 495.07607149 4.62188491 499.77220154 4.62049103 C501.15857489 4.62008649 501.15857489 4.62008649 502.57295579 4.61967378 C517.43970982 4.61495032 532.3064159 4.59640728 547.17315039 4.57267186 C562.12596619 4.54909482 577.07873456 4.54013511 592.03156829 4.54599449 C600.91096872 4.54903249 609.79019526 4.54096454 618.66956423 4.51680983 C624.60873466 4.50176007 630.54779182 4.50138046 636.48697021 4.51267275 C639.86620577 4.51868537 643.24484872 4.51632274 646.62409121 4.50046727 C673.94609244 4.37975437 697.08761501 9.06791405 717.3125 28.75 C728.78427781 40.36887575 735.64123961 55.1593598 739 71 C739.18304687 71.7425 739.36609375 72.485 739.5546875 73.25 C742.94878437 94.21003684 737.85441465 115.50234309 726 133 C722.69345421 137.37255107 718.94742133 141.2077175 715 145 C714.24847656 145.74765625 713.49695312 146.4953125 712.72265625 147.265625 C699.28432266 159.99923585 680.68130069 167.30302023 662.23484516 167.29243946 C661.27628643 167.29973108 660.31772769 167.30702271 659.33012173 167.31453529 C656.11730388 167.33653618 652.9046077 167.34450873 649.69172668 167.35249329 C647.36514716 167.36537387 645.03857212 167.37908823 642.71200198 167.39356488 C636.98771613 167.42684369 631.26344397 167.45083381 625.53909732 167.47078 C618.68029859 167.49514339 611.82156985 167.53081526 604.96282208 167.56644438 C587.59764983 167.65591233 570.23240682 167.72183359 552.86711815 167.78383353 C548.16096358 167.80065875 543.45481114 167.81803607 538.7486589 167.83549857 C509.51224072 167.94373535 480.27580294 168.04421391 451.03929615 168.12534809 C444.26911701 168.14423578 437.49893823 168.16324732 430.72875977 168.18237305 C429.46715187 168.18592418 429.46715187 168.18592418 428.18005694 168.18954705 C400.92806811 168.26653823 373.67646023 168.38443513 346.42473383 168.52561693 C318.38684209 168.6706964 290.34905062 168.77982273 262.3108459 168.84198501 C258.34587309 168.85077971 254.38090124 168.85995415 250.41592979 168.86934471 C249.63565451 168.87117651 248.85537922 168.87300832 248.05145923 168.87489563 C235.52538026 168.90529296 222.99976723 168.97278206 210.47392654 169.05403213 C197.86768599 169.1349215 185.26182564 169.17478491 172.65532152 169.17371134 C165.83304003 169.17421769 159.01212111 169.19345305 152.19013214 169.26080132 C145.93245784 169.32215883 139.67683582 169.33159298 133.41895338 169.3013946 C131.16708632 169.29937662 128.91510392 169.31566118 126.66354749 169.35311774 C110.08633002 169.61370427 99.01544969 165.74283667 85 157 C83.8222144 156.30837186 82.6415312 155.62163009 81.456734 154.94208318 C78.91051221 153.47515828 76.42012157 151.9466762 73.9375 150.375 C73.06738281 149.82924316 72.19726562 149.28348633 71.30078125 148.72119141 C64.59213524 144.46946184 58.17359072 140.00727315 52 135 C51.48566406 134.58572754 50.97132813 134.17145508 50.44140625 133.74462891 C27.54492243 115.20643862 10.42944722 94.09902512 3 65 C2.73324463 64.01668701 2.46648926 63.03337402 2.19165039 62.02026367 C-0.79053716 49.46638136 -0.33215731 36.8951501 -0.1875 24.0625 C-0.17242101 21.72201385 -0.15873832 19.38151827 -0.14648438 17.04101562 C-0.11374532 11.36046804 -0.06380277 5.68027925 0 0 Z " fill="#1D2340" transform="translate(560,514)"/>
<path d="M0 0 C4.1353319 2.97473467 8.0835835 6.02566816 11.8125 9.5 C35.30179986 30.58425209 64.27410227 47.19926269 92.61669922 60.84521484 C95.410515 62.1989076 98.19097486 63.57857966 100.97265625 64.95703125 C138.94487115 83.65559854 178.75370947 98.04441153 219 111 C219.7727124 111.24876892 220.5454248 111.49753784 221.34155273 111.75384521 C238.20911766 117.17690487 255.09106193 122.53753769 272.12646484 127.41235352 C283.98216361 130.82058177 295.73673093 134.56237432 307.49963379 138.27580261 C311.39343798 139.50314963 315.29730356 140.69177693 319.20703125 141.8671875 C327.33184781 144.3613375 335.33973056 147.1901919 343.35644531 150.00854492 C345.99427858 150.93548947 348.63374597 151.85765931 351.2734375 152.77929688 C360.5774036 156.03653606 369.8303713 159.37837315 379 163 C379 163.33 379 163.66 379 164 C329.73186438 164.05137275 280.46372688 164.0991323 231.1955719 164.12702942 C230.46598897 164.12744359 229.73640604 164.12785776 228.98471454 164.12828448 C213.12760391 164.13726392 197.270493 164.14557437 181.41338166 164.15319599 C173.6366717 164.15693789 165.85996181 164.16082756 158.08325195 164.16479492 C156.922459 164.16538334 156.922459 164.16538334 155.73821567 164.16598364 C130.6706124 164.17875985 105.60302945 164.20128793 80.53543849 164.22889166 C54.76785659 164.25721457 29.00028595 164.27566216 3.23268875 164.28174497 C-0.40966747 164.28260939 -4.05202364 164.2835863 -7.69437981 164.28463173 C-8.76964544 164.28493513 -8.76964544 164.28493513 -9.86663361 164.28524467 C-21.38989904 164.28878508 -32.91312963 164.30268647 -44.43638087 164.3204961 C-56.03079725 164.33819339 -67.62517069 164.34465278 -79.21960098 164.34050413 C-85.49780039 164.33858383 -91.77589781 164.34151522 -98.05407906 164.35761642 C-103.80788287 164.37226471 -109.56151654 164.37292034 -115.31532835 164.36269668 C-117.39095505 164.36143395 -119.46659257 164.36519747 -121.54219813 164.37464955 C-135.90094344 164.43620699 -149.98570576 164.01496884 -163.25 157.8125 C-163.91273926 157.51134277 -164.57547852 157.21018555 -165.25830078 156.89990234 C-171.41032968 153.9975519 -176.76466192 150.34248972 -182 146 C-182.86238281 145.30003906 -183.72476562 144.60007812 -184.61328125 143.87890625 C-199.1478543 131.50577199 -206.93961308 115.31540122 -211 97 C-211.29197266 95.7625 -211.29197266 95.7625 -211.58984375 94.5 C-215.0255569 73.55851032 -208.54015379 52.35189188 -197 35 C-194.21664004 31.41780569 -191.22746177 28.1842127 -188 25 C-187.24074219 24.23042969 -186.48148437 23.46085938 -185.69921875 22.66796875 C-172.49187118 9.97940406 -154.34887607 1.86340807 -135.88760376 1.87974548 C-134.6845459 1.87837082 -133.48148804 1.87699615 -132.24197388 1.87557983 C-130.93574066 1.87917511 -129.62950745 1.88277039 -128.28369141 1.88647461 C-126.88380943 1.88675691 -125.4839273 1.88659791 -124.08404541 1.8860321 C-120.29525229 1.88574581 -116.50649099 1.89161544 -112.71770525 1.89860606 C-108.75389296 1.90486752 -104.7900799 1.90544561 -100.82626343 1.90663147 C-93.32535436 1.90973656 -85.8244599 1.91793885 -78.32355726 1.92798096 C-69.7818656 1.93916764 -61.24017324 1.94465899 -52.69847608 1.94967639 C-35.13230894 1.96012216 -17.56615602 1.97770566 0 2 C0 1.34 0 0.68 0 0 Z " fill="#191E35" transform="translate(512,736)"/>
<path d="M0 0 C55.83210664 -0.06867771 111.66420907 -0.12153469 167.49634964 -0.15319599 C174.08895647 -0.15694807 180.68156322 -0.16083105 187.27416992 -0.16479492 C188.58663039 -0.16558185 189.89909085 -0.16636878 191.25132284 -0.16717956 C212.49802589 -0.18023083 233.74470457 -0.20388316 254.99139317 -0.23145839 C276.79504369 -0.25952031 298.59868146 -0.27617793 320.40234929 -0.28226548 C333.85462286 -0.28638028 347.30682755 -0.29937319 360.75907991 -0.3237494 C369.98579099 -0.33961628 379.2124665 -0.34439819 388.43919023 -0.34050413 C393.76122326 -0.33858409 399.08313596 -0.34151223 404.40514755 -0.35761642 C409.28298956 -0.37226844 414.16063089 -0.37291803 419.03848235 -0.36269668 C420.79779084 -0.36143431 422.55711212 -0.36519473 424.31639566 -0.37464955 C437.42322843 -0.44096029 449.52869051 0.7153575 461.5 6.5625 C462.21357666 6.90692139 462.92715332 7.25134277 463.66235352 7.60620117 C483.79534013 17.71205626 497.55356501 34.83133113 505.03515625 55.890625 C510.13285938 72.31885047 510.25134299 91.9192427 504 108 C503.649375 109.00804687 503.29875 110.01609375 502.9375 111.0546875 C496.41984411 128.48036471 483.21313056 143.07798141 467 152 C465.78570313 152.68835938 465.78570313 152.68835938 464.546875 153.390625 C451.04129364 160.62264599 437.5863715 162.10561958 422.55078125 162.36401367 C421.20298825 162.39000595 419.85519985 162.4162373 418.50741577 162.44268799 C406.26535225 162.676097 394.02189551 162.84205793 381.77854919 162.99140453 C372.7406961 163.10256043 363.70459501 163.24651061 354.6679697 163.4326784 C348.29689554 163.56105254 341.92595731 163.65081246 335.55389309 163.71252233 C331.75435418 163.75044182 327.9568787 163.80545169 324.15835571 163.90266991 C320.58572987 163.99341359 317.01565446 164.03616126 313.4419136 164.04296875 C311.51541938 164.05878275 309.58953344 164.12443742 307.66415405 164.19184875 C299.31787746 164.14310788 299.31787746 164.14310788 295.50160217 160.8329258 C293.46645993 158.30780638 291.72343287 155.74388035 290 153 C288.99185128 151.7413398 287.96638369 150.4959384 286.91015625 149.27734375 C286.44061523 148.72377197 285.97107422 148.1702002 285.48730469 147.59985352 C277.88610232 138.73134993 269.90124719 130.57454484 261 123 C260.10152344 122.21238281 259.20304687 121.42476562 258.27734375 120.61328125 C211.4155635 79.82223162 152.93856386 53.02890646 95 32 C94.32146973 31.75312439 93.64293945 31.50624878 92.94384766 31.25189209 C73.61747183 24.22834151 54.15892415 17.66754127 34.5625 11.4375 C33.63283417 11.14177094 32.70316833 10.84604187 31.74533081 10.54135132 C21.20771624 7.19684731 10.65432961 3.9540388 0 1 C0 0.67 0 0.34 0 0 Z " fill="#1C213C" transform="translate(823,738)"/>
<path d="M0 0 C3.5617323 0.01137188 7.12316493 0.00462603 10.68488693 -0.00687599 C31.19581857 -0.0631312 51.68393589 0.34381257 71.90820312 4.13574219 C72.85332764 4.3064624 73.79845215 4.47718262 74.7722168 4.65307617 C82.61761934 6.11310552 90.25384188 8.00945947 97.90820312 10.26074219 C98.72160156 10.47085937 99.535 10.68097656 100.37304688 10.89746094 C126.31868504 17.8606493 151.90507264 32.29096772 165.95898438 55.70996094 C169.82444208 62.51544786 171.9181139 69.26191714 172.34570312 77.07324219 C173.27406689 93.19301306 181.44317185 108.20920385 192.90820312 119.26074219 C195.24016779 121.2222078 197.60408572 123.08347087 200.06054688 124.88574219 C201.90820312 126.26074219 201.90820312 126.26074219 203.90820312 128.26074219 C150.21598535 128.28361358 96.52376807 128.30124298 42.83154638 128.31180752 C36.49772362 128.31305828 30.16390087 128.31435259 23.83007812 128.31567383 C22.56908793 128.31593614 21.30809774 128.31619845 20.00889573 128.31646871 C-0.42909363 128.32082417 -20.86708018 128.32871104 -41.30506787 128.33789498 C-62.26455701 128.34723496 -83.22404468 128.35279853 -104.18353581 128.35483068 C-117.12449635 128.35620519 -130.06544896 128.36055191 -143.00640705 128.36865865 C-151.87142001 128.37393035 -160.73642885 128.37554551 -169.60144326 128.37424356 C-174.72181799 128.37360085 -179.84217884 128.37461022 -184.96255112 128.37994766 C-189.64557138 128.38479376 -194.32856837 128.3850728 -199.01158968 128.38164108 C-200.71016959 128.38121659 -202.40875093 128.38250213 -204.10732803 128.38562537 C-206.40793927 128.3896113 -208.70846536 128.38749175 -211.00907516 128.38379002 C-212.28949212 128.38416974 -213.56990907 128.38454946 -214.88912654 128.38494068 C-217.50304485 128.2835738 -219.6153109 128.04361909 -222.09179688 127.26074219 C-215.44558728 100.92909273 -199.63811527 78.57431199 -181.09179688 59.26074219 C-180.55973633 58.70459229 -180.02767578 58.14844238 -179.47949219 57.57543945 C-158.35141747 35.90692077 -129.62580576 22.20034893 -101.09179688 13.26074219 C-100.25374512 12.99664551 -99.41569336 12.73254883 -98.55224609 12.46044922 C-87.19390041 8.95473344 -75.74633894 6.49499618 -64.02929688 4.51074219 C-62.27576904 4.21272705 -62.27576904 4.21272705 -60.48681641 3.90869141 C-56.69527784 3.30098292 -52.89931124 2.75627437 -49.09179688 2.26074219 C-48.37217773 2.16611694 -47.65255859 2.0714917 -46.91113281 1.97399902 C-31.31040823 0.00893974 -15.69706924 -0.05048427 0 0 Z " fill="#1E2441" transform="translate(794.091796875,334.7392578125)"/>
<path d="M0 0 C23.81790376 -0.04675946 47.63580063 -0.0820082 71.45374107 -0.10362434 C82.51328442 -0.1139287 93.5727992 -0.12797298 104.63232422 -0.15087891 C114.27390011 -0.1708385 123.91545532 -0.18372255 133.5570513 -0.18817699 C138.6602768 -0.19078001 143.76344313 -0.19688077 148.86664963 -0.21146011 C153.67480754 -0.22508461 158.4828822 -0.22921282 163.29105759 -0.22621536 C165.05099948 -0.22676335 166.81094431 -0.23071169 168.57086945 -0.23841095 C177.21804492 -0.27436906 185.59008484 -0.30650669 194 2 C195.25425781 2.33257812 196.50851562 2.66515625 197.80078125 3.0078125 C218.95387217 9.7372719 235.96765806 23.44388553 246.38964844 43.06079102 C249.82015118 49.8186896 252.54564381 56.52388802 254 64 C254.18046875 64.8559375 254.3609375 65.711875 254.546875 66.59375 C257.6619647 90.01063118 253.57716017 111.09276067 239.5625 130.375 C225.05993053 148.74006284 205.38324566 160.11600226 182 163 C176.25779779 163.27236959 170.52596826 163.25373463 164.77856445 163.22705078 C163.06267809 163.22648566 161.34679124 163.22680519 159.63090515 163.22793579 C155.00356186 163.22850637 150.37632362 163.21680009 145.7490046 163.20278788 C140.90170092 163.19023109 136.05439446 163.18910613 131.20707703 163.18673706 C122.04176796 163.18053678 112.87650697 163.16414571 103.71121901 163.14403808 C93.27102421 163.12163376 82.83082703 163.11067428 72.39061415 163.10064721 C50.92704933 163.07977812 29.4635277 163.04463053 8 163 C8.7748877 162.38141113 9.54977539 161.76282227 10.34814453 161.12548828 C25.68865239 148.82992012 36.33843535 133.95073669 39 114 C41.49702682 86.91165758 32.76678534 59.06919339 21 35 C20.68305176 34.34692871 20.36610352 33.69385742 20.03955078 33.02099609 C15.25774225 23.29625018 9.44280378 14.46637272 3.10986328 5.68481445 C1.90470642 3.85534073 0.96504092 1.9647499 0 0 Z " fill="#212748" transform="translate(1057,300)"/>
<path d="M0 0 C44.98658492 -0.06870919 89.97316427 -0.12155065 134.95979134 -0.15319599 C140.27430108 -0.15694798 145.58881072 -0.16083096 150.90332031 -0.16479492 C151.96131621 -0.16558185 153.01931211 -0.16636878 154.10936849 -0.16717956 C171.22652198 -0.18022336 188.34364517 -0.20387156 205.4607807 -0.23145839 C223.03253923 -0.25954112 240.60428193 -0.27618232 258.17606199 -0.28226548 C269.01342901 -0.28637597 279.85071034 -0.29934538 290.68805097 -0.3237494 C298.12579564 -0.339642 305.56349619 -0.34439239 313.0012566 -0.34050413 C317.28851384 -0.33858807 321.57562162 -0.34146633 325.8628521 -0.35761642 C329.79642906 -0.37232526 333.72975751 -0.372882 337.66334645 -0.36269668 C339.07812689 -0.36143976 340.49292349 -0.36515181 341.9076726 -0.37464955 C366.10968808 -0.52753327 386.37681375 7.68549706 404.01171875 23.95703125 C409 29.08251473 409 29.08251473 409 32 C409.66 32 410.32 32 411 32 C412.2890625 33.75 412.2890625 33.75 413.625 36 C414.07101562 36.7425 414.51703125 37.485 414.9765625 38.25 C415.31429688 38.8275 415.65203125 39.405 416 40 C397.45772912 56.84114511 374.09721613 67.48174866 350.50878906 75.1796875 C348.88012338 75.71222124 347.25425004 76.25340122 345.63183594 76.8046875 C330.41386787 81.9646196 314.85575019 84.5797485 299 87 C297.85499023 87.18111328 296.70998047 87.36222656 295.53027344 87.54882812 C282.3172736 89.56103546 269.14189472 90.15527038 255.7890625 90.1328125 C254.49664642 90.13376923 253.20423035 90.13472595 251.87265015 90.13571167 C249.16183244 90.13716909 246.45104813 90.13509891 243.74023438 90.13037109 C240.31928555 90.12468559 236.89841464 90.1280588 233.47746849 90.13379955 C177.49595949 90.21421713 123.47897024 81.10192732 73 56 C72.21351074 55.61489258 71.42702148 55.22978516 70.61669922 54.83300781 C45.80962723 42.6101713 24.7157683 25.6920537 5.1875 6.3125 C4.66534912 5.79510254 4.14319824 5.27770508 3.60522461 4.74462891 C0 1.12286938 0 1.12286938 0 0 Z " fill="#151B2E" transform="translate(561,1175)"/>
<path d="M0 0 C1.88078247 0.00212242 1.88078247 0.00212242 3.79956055 0.00428772 C7.10717967 0.00891544 10.41474863 0.01787522 13.72235107 0.0289917 C17.10786327 0.03928449 20.49338286 0.04380208 23.87890625 0.04882812 C30.50262354 0.05982178 37.12630768 0.07653332 43.75 0.09765625 C43.73428955 1.11150391 43.7185791 2.12535156 43.70239258 3.16992188 C42.94264622 57.29984201 49.44035346 107.56927311 76.89990234 155.38354492 C77.27064377 156.03064171 77.64138519 156.67773849 78.02336121 157.34444427 C78.93149877 158.9292737 79.84064723 160.51352378 80.75 162.09765625 C68.36189645 162.19075663 55.97387754 162.26162326 43.58549404 162.30490494 C37.83169035 162.3256887 32.07812783 162.35383641 26.32446289 162.39941406 C20.7612226 162.44320234 15.19821278 162.46686243 9.63481331 162.47716522 C7.52315715 162.48449781 5.41151213 162.49881481 3.29995537 162.52057648 C-11.99631781 162.67180326 -25.72218497 161.70068021 -39.5 154.34765625 C-40.16201416 154.00404053 -40.82402832 153.6604248 -41.50610352 153.30639648 C-62.2639427 142.25417485 -75.33362458 125.56686768 -82.4375 103.390625 C-88.57725191 82.44889603 -85.4135625 60.64739569 -75.4375 41.34765625 C-72.25084979 35.79750588 -68.46180889 30.90426257 -64.25 26.09765625 C-63.65703125 25.40929687 -63.0640625 24.7209375 -62.453125 24.01171875 C-46.0953417 6.32573937 -23.29229205 -0.09972348 0 0 Z " fill="#1A203A" transform="translate(385.25,518.90234375)"/>
<path d="M0 0 C8.93688429 -0.02327795 17.87375797 -0.04099329 26.81066608 -0.05181217 C30.96143485 -0.05700742 35.11218271 -0.06404333 39.26293945 -0.07543945 C43.27649831 -0.08638862 47.29003719 -0.09230206 51.30360985 -0.09487724 C52.82682802 -0.09670999 54.35004522 -0.10028836 55.87325478 -0.10573006 C82.60720172 -0.19734802 104.75088148 5.62660596 124.5390625 24.41015625 C133.72035101 34.11203328 139.8653797 45.36121748 144 58 C144.3196875 58.90621094 144.639375 59.81242188 144.96875 60.74609375 C150.88336671 80.05074551 147.09388796 102.37224772 138.08154297 120.0390625 C127.08707388 139.9730525 109.48541235 153.87532659 87.625 160.375 C78.15188467 162.97501972 69.07548404 163.13799168 59.3125 163.09765625 C58.01425293 163.0962413 56.71600586 163.09482635 55.37841797 163.09336853 C51.95243348 163.08957825 48.52649241 163.07977839 45.1005249 163.06866455 C41.59436632 163.05837479 38.08820063 163.05385481 34.58203125 163.04882812 C27.7213365 163.03815246 20.86067034 163.02111874 14 163 C14.08564209 162.09870361 14.17128418 161.19740723 14.25952148 160.26879883 C14.58286653 156.86003028 14.90516701 153.45116606 15.22680664 150.04223633 C15.36507322 148.57898183 15.50373202 147.11576433 15.64282227 145.65258789 C16.04535144 141.41658591 16.44050873 137.18001699 16.82382202 132.94223022 C16.98298787 131.18754602 17.14616155 129.43322648 17.30981445 127.67895508 C18.10398093 118.47775238 18.28315605 109.29297137 18.3125 100.0625 C18.31545074 99.2389502 18.31840149 98.41540039 18.32144165 97.56689453 C18.34092389 73.4438141 14.79406412 50.03612753 8.6875 26.6875 C8.51283203 25.98689453 8.33816406 25.28628906 8.15820312 24.56445312 C5.97894081 16.20454051 2.92768277 8.11993314 0 0 Z " fill="#1A1E37" transform="translate(1153,956)"/>
</svg>
