<?xml version="1.0" encoding="UTF-8"?>
<svg version="1.1" xmlns="http://www.w3.org/2000/svg" width="600" height="600">
<path d="M0 0 C1.52228122 -0.00374387 3.04456052 -0.00834831 4.56683683 -0.01373065 C8.71971705 -0.02588539 12.87251626 -0.02570912 17.02541018 -0.02334189 C21.51643374 -0.0229318 26.007432 -0.03399126 30.4984436 -0.04345703 C39.28668016 -0.06002743 48.07488988 -0.06556481 56.86314076 -0.06668179 C64.01276319 -0.06763429 71.16237682 -0.07175468 78.31199646 -0.07808304 C98.6146754 -0.09568586 118.91733325 -0.10492359 139.22001988 -0.10342209 C140.85974346 -0.10330222 140.85974346 -0.10330222 142.53259277 -0.10317993 C144.17433563 -0.10305729 144.17433563 -0.10305729 145.84924501 -0.10293217 C163.57268945 -0.10211989 181.29604877 -0.12124541 199.01946861 -0.14945666 C217.24931118 -0.1782433 235.47911232 -0.19199374 253.70897818 -0.19026911 C263.93088471 -0.18960713 274.15270205 -0.19501482 284.37458801 -0.21662521 C293.0803819 -0.23491339 301.78604617 -0.23912216 310.49185103 -0.22560637 C314.92578631 -0.21911459 319.35947349 -0.21882066 323.79338455 -0.23631287 C344.55672046 -0.3131625 364.82418405 -0.26374731 384.45739746 7.51742554 C385.22890137 7.81334595 386.00040527 8.10926636 386.79528809 8.41415405 C405.45450951 15.78054701 420.56707143 27.05761989 434.64489746 41.26742554 C435.40028809 42.01379272 436.15567871 42.76015991 436.93395996 43.52914429 C459.21834904 66.67062526 469.98686321 98.97218271 469.912323 130.62252808 C469.91606687 132.1448093 469.9206713 133.6670886 469.92605364 135.18936491 C469.93820839 139.34224513 469.93803212 143.49504434 469.93566489 147.64793825 C469.9352548 152.13896182 469.94631425 156.62996008 469.95578003 161.12097168 C469.97235043 169.90920824 469.97788781 178.69741796 469.97900479 187.48566884 C469.97995729 194.63529127 469.98407768 201.78490489 469.99040604 208.93452454 C470.00800885 229.23720348 470.01724659 249.53986133 470.01574509 269.84254795 C470.01562522 271.48227154 470.01562522 271.48227154 470.01550293 273.15512085 C470.01542117 274.24961609 470.01533941 275.34411133 470.01525517 276.47177309 C470.01444289 294.19521752 470.03356841 311.91857685 470.06177966 329.64199668 C470.0905663 347.87183925 470.10431673 366.1016404 470.10259211 384.33150625 C470.10193013 394.55341279 470.10733782 404.77523013 470.12894821 414.99711609 C470.14723639 423.70290997 470.15144516 432.40857425 470.13792937 441.11437911 C470.13143759 445.54831438 470.13114366 449.98200157 470.14863586 454.41591263 C470.2254855 475.17924854 470.17607031 495.44671213 462.39489746 515.07992554 C462.09897705 515.85142944 461.80305664 516.62293335 461.49816895 517.41781616 C454.13177599 536.07703759 442.85470311 551.18959951 428.64489746 565.26742554 C427.52534668 566.40051147 427.52534668 566.40051147 426.38317871 567.55648804 C403.24169774 589.84087712 370.94014028 600.60939129 339.28979492 600.53485107 C337.7675137 600.53859494 336.2452344 600.54319938 334.72295809 600.54858172 C330.57007787 600.56073646 326.41727866 600.5605602 322.26438475 600.55819297 C317.77336118 600.55778288 313.28236292 600.56884233 308.79135132 600.57830811 C300.00311476 600.5948785 291.21490504 600.60041589 282.42665416 600.60153286 C275.27703173 600.60248537 268.1274181 600.60660575 260.97779846 600.61293411 C240.67511952 600.63053693 220.37246167 600.63977467 200.06977504 600.63827316 C198.43005146 600.6381533 198.43005146 600.6381533 196.75720215 600.63803101 C195.11545929 600.63790836 195.11545929 600.63790836 193.44054991 600.63778324 C175.71710547 600.63697097 157.99374615 600.65609648 140.27032632 600.68430774 C122.04048375 600.71309437 103.8106826 600.72684481 85.58081675 600.72512019 C75.35891021 600.7244582 65.13709287 600.7298659 54.91520691 600.75147629 C46.20941303 600.76976446 37.50374875 600.77397323 28.79794389 600.76045744 C24.36400862 600.75396566 19.93032143 600.75367173 15.49641037 600.77116394 C-5.26692554 600.84801358 -25.53438913 600.79859839 -45.16760254 593.01742554 C-45.93910645 592.72150513 -46.71061035 592.42558472 -47.50549316 592.12069702 C-66.16471459 584.75430406 -81.27727651 573.47723118 -95.35510254 559.26742554 C-96.11049316 558.52105835 -96.86588379 557.77469116 -97.64416504 557.00570679 C-119.92855412 533.86422582 -130.69706829 501.56266836 -130.62252808 469.912323 C-130.62627195 468.39004178 -130.63087638 466.86776247 -130.63625872 465.34548616 C-130.64841347 461.19260595 -130.6482372 457.03980674 -130.64586997 452.88691282 C-130.64545988 448.39588925 -130.65651933 443.904891 -130.66598511 439.41387939 C-130.6825555 430.62564284 -130.68809289 421.83743312 -130.68920986 413.04918224 C-130.69016237 405.89955981 -130.69428276 398.74994618 -130.70061111 391.60032654 C-130.71821393 371.2976476 -130.72745167 350.99498975 -130.72595017 330.69230312 C-130.72587025 329.59915407 -130.72579034 328.50600501 -130.72570801 327.37973022 C-130.72562625 326.28523499 -130.72554449 325.19073975 -130.72546025 324.06307799 C-130.72464797 306.33963355 -130.74377349 288.61627423 -130.77198474 270.89285439 C-130.80077137 252.66301182 -130.81452181 234.43321068 -130.81279719 216.20334482 C-130.81213521 205.98143829 -130.8175429 195.75962095 -130.83915329 185.53773499 C-130.85744147 176.8319411 -130.86165024 168.12627683 -130.84813444 159.42047197 C-130.84164267 154.98653669 -130.84134873 150.55284951 -130.85884094 146.11893845 C-130.93569058 125.35560254 -130.88627539 105.08813894 -123.10510254 85.45492554 C-122.80918213 84.68342163 -122.51326172 83.91191772 -122.20837402 83.11703491 C-114.84198106 64.45781349 -103.56490819 49.34525157 -89.35510254 35.26742554 C-88.60873535 34.51203491 -87.86236816 33.75664429 -87.09338379 32.97836304 C-63.95190282 10.69397396 -31.65034536 -0.07454021 0 0 Z " fill="#0E1220" transform="translate(130.3551025390625,-0.267425537109375)"/>
<path d="M0 0 C12.93112528 11.69553176 23.25777521 27.80432377 24.6328125 45.515625 C24.89726106 53.98709775 24.3978849 60.68099485 18.5703125 67.140625 C12.18878521 73.10084758 5.99589481 75.83211082 -2.78515625 75.5546875 C-10.04455456 74.5076589 -16.01235248 70.81520561 -20.453125 65.0234375 C-23.29909023 60.47556615 -24.54161049 55.73985835 -25.56640625 50.51953125 C-27.11739794 43.22736871 -31.54695101 38.21756479 -37.62890625 34.14453125 C-49.75439582 27.757823 -63.99794334 24.53398733 -77.62890625 24.14453125 C-78.61503906 24.10585937 -78.61503906 24.10585937 -79.62109375 24.06640625 C-105.70748664 23.12465921 -133.93624229 26.65873691 -154.62890625 44.01953125 C-167.92735949 56.81804263 -175.41124007 75.25733067 -175.796875 93.578125 C-175.80873247 95.57940255 -175.81511923 97.58071899 -175.81640625 99.58203125 C-175.83477539 101.07959961 -175.83477539 101.07959961 -175.85351562 102.60742188 C-175.88004172 116.05614993 -171.71952997 126.83633587 -162.37109375 136.64453125 C-140.895204 156.22369 -109.78110983 165.41205272 -82.45556641 173.32275391 C-46.13706203 183.88140702 -10.09024754 195.67925658 19.37109375 220.14453125 C19.9846875 220.62277344 20.59828125 221.10101563 21.23046875 221.59375 C38.64212693 235.53106354 48.95218211 257.4969902 52.37109375 279.14453125 C52.75960719 284.2164761 52.80118061 289.24716371 52.74609375 294.33203125 C52.73961319 295.34259079 52.73961319 295.34259079 52.73300171 296.37356567 C52.64963829 307.50562404 51.98508771 318.30177776 49.37109375 329.14453125 C49.21012207 329.81371582 49.04915039 330.48290039 48.88330078 331.17236328 C43.59442323 352.05860308 33.05708292 369.54402993 18.37109375 385.14453125 C17.83226562 385.7478125 17.2934375 386.35109375 16.73828125 386.97265625 C-6.65297765 412.12707536 -45.03489528 420.90678348 -77.98535156 422.28491211 C-95.62153896 422.77836111 -112.32608303 421.66545458 -129.62890625 418.14453125 C-130.81613281 417.92023438 -130.81613281 417.92023438 -132.02734375 417.69140625 C-154.3694553 413.45816406 -176.91428629 403.44763381 -194.62890625 389.14453125 C-195.44222412 388.49726074 -195.44222412 388.49726074 -196.27197266 387.83691406 C-208.67322207 377.90070252 -223.70660979 365.1058978 -226.16015625 348.5625 C-226.42937176 342.242666 -226.14804407 337.03486956 -222.25390625 331.890625 C-217.27714956 326.54300423 -212.57676147 321.78925178 -205.05078125 320.80859375 C-196.47556297 320.68322506 -189.60469756 322.71675884 -183.0859375 328.53515625 C-180.54254396 331.34448102 -178.52653801 334.52561436 -176.40234375 337.65625 C-162.46034385 357.21804282 -136.22287828 366.08570361 -113.62890625 370.14453125 C-105.47914622 371.38400768 -97.3019074 371.36501084 -89.07568359 371.38476562 C-86.66207433 371.39439887 -84.24934532 371.42546409 -81.8359375 371.45703125 C-58.50188629 371.6174714 -34.06036795 366.49808686 -16.43359375 350.078125 C-10.13284173 343.32731927 -6.10245423 335.62972964 -2.62890625 327.14453125 C-2.33113281 326.45617187 -2.03335938 325.7678125 -1.7265625 325.05859375 C2.13577167 315.64295324 2.7337394 305.71332668 2.74609375 295.64453125 C2.77058594 294.59394531 2.79507813 293.54335938 2.8203125 292.4609375 C2.86812196 279.56831944 -1.83930019 269.35931812 -10.625 260.0234375 C-31.46097751 240.41085684 -62.63306589 231.3888313 -89.41210938 223.60595703 C-111.55121608 217.11400521 -133.74890435 210.01787591 -154.62890625 200.14453125 C-155.35932129 199.80470215 -156.08973633 199.46487305 -156.84228516 199.11474609 C-169.94506046 192.9813449 -181.48529753 185.39840212 -192.62890625 176.14453125 C-193.54929687 175.42716797 -193.54929687 175.42716797 -194.48828125 174.6953125 C-208.47265822 163.50139608 -217.45268285 147.02263042 -222.62890625 130.14453125 C-222.89743408 129.29793945 -223.16596191 128.45134766 -223.44262695 127.57910156 C-225.96839336 118.7588693 -226.22480218 110.11531259 -226.19140625 101.01953125 C-226.19125519 100.23339447 -226.19110413 99.44725769 -226.19094849 98.63729858 C-226.0678715 65.88514602 -215.52946579 34.8455461 -192.05761719 11.54931641 C-191.58614258 11.0857373 -191.11466797 10.6221582 -190.62890625 10.14453125 C-189.80648437 9.32339844 -188.9840625 8.50226563 -188.13671875 7.65625 C-178.40860031 -1.57748865 -166.77646992 -8.30425489 -154.62890625 -13.85546875 C-153.86964844 -14.21125 -153.11039062 -14.56703125 -152.328125 -14.93359375 C-107.08208499 -34.62617075 -38.98058341 -32.6189522 0 0 Z " fill="#8A90F8" transform="translate(386.62890625,101.85546875)"/>
<path d="M0 0 C0.54011719 0.74636719 1.08023437 1.49273437 1.63671875 2.26171875 C6.46011332 11.0427704 7.91955157 18.85870905 7.6875 28.8125 C7.68556641 30.38837891 7.68556641 30.38837891 7.68359375 31.99609375 C7.62637358 37.13955092 7.23363366 41.96287232 6.29434204 47.02307129 C6.1113386 48.01360756 5.92833515 49.00414383 5.73978615 50.02469635 C5.5282795 51.15715916 5.5282795 51.15715916 5.3125 52.3125 C-21.03017208 52.20431847 -47.37282043 52.09140767 -73.71544933 51.97316074 C-85.95213708 51.91833797 -98.18882767 51.86495142 -110.42553711 51.81518555 C-121.11526042 51.77170725 -131.80496666 51.72529053 -142.49466306 51.67562145 C-148.13273447 51.64951978 -153.77080363 51.62470079 -159.40889549 51.60342598 C-171.8130976 51.55584247 -184.21660413 51.48155936 -196.62035751 51.36497879 C-200.7655391 51.32671589 -204.91059836 51.30000328 -209.05591202 51.2810173 C-214.27575838 51.25589502 -219.49482867 51.20560834 -224.71428931 51.13783252 C-226.66302618 51.11641277 -228.61187447 51.10323644 -230.56072462 51.09907448 C-249.5193763 51.04783584 -249.5193763 51.04783584 -257.6875 45.3125 C-258.595 44.755625 -259.5025 44.19875 -260.4375 43.625 C-268.24698475 35.59858512 -270.05148723 27.70817164 -269.97265625 16.86328125 C-269.58083693 11.98432565 -268.16241609 8.47760269 -265.6875 4.3125 C-265.130625 3.260625 -264.57375 2.20875 -264 1.125 C-259.45263839 -4.40557493 -253.56040495 -7.81779877 -246.6875 -9.6875 C-243.47623395 -9.98756425 -240.27732133 -9.99858355 -237.05360413 -10.00634766 C-236.08969818 -10.01637345 -235.12579224 -10.02639925 -234.13267702 -10.03672886 C-230.90624723 -10.06775626 -227.67990175 -10.08469446 -224.45336914 -10.1015625 C-222.13874177 -10.12068531 -219.82412072 -10.14058683 -217.50950623 -10.16120911 C-211.22451256 -10.21417748 -204.93950415 -10.25399408 -198.65439153 -10.28980637 C-194.72819875 -10.31246801 -190.80202691 -10.33741873 -186.87585258 -10.36306763 C-175.99915555 -10.43355888 -165.12245639 -10.5006023 -154.24565983 -10.55378723 C-153.55027523 -10.55719397 -152.85489064 -10.56060072 -152.13843378 -10.5641107 C-151.44142287 -10.5675222 -150.74441196 -10.5709337 -150.02627951 -10.57444859 C-148.61395519 -10.58136428 -147.2016309 -10.58828638 -145.78930664 -10.59521484 C-145.08875074 -10.59864832 -144.38819483 -10.60208179 -143.66640996 -10.60561931 C-132.30962127 -10.66200203 -120.95320467 -10.74543882 -109.59668023 -10.8404932 C-97.92916004 -10.93776034 -86.26168383 -11.01186453 -74.59387487 -11.06433868 C-68.04585462 -11.09429363 -61.49824248 -11.1340602 -54.95045662 -11.19781494 C-48.79363377 -11.25711425 -42.63733016 -11.28775373 -36.48023415 -11.29633141 C-34.22068894 -11.30441121 -31.96115355 -11.32280767 -29.70178604 -11.35227394 C-26.61666918 -11.39092231 -23.53367816 -11.39236404 -20.44837952 -11.38452148 C-19.55459833 -11.40452524 -18.66081714 -11.424529 -17.73995167 -11.44513893 C-9.2349379 -11.34605775 -4.73339845 -6.75053678 0 0 Z " fill="#151A30" transform="translate(382.6875,368.6875)"/>
<path d="M0 0 C0.33 0 0.66 0 1 0 C1 1.65 1 3.3 1 5 C2.94201451 4.99446924 2.94201451 4.99446924 4.92326164 4.98882675 C35.67597484 4.90214195 66.42865499 4.83621125 97.18146109 4.79573868 C100.96895604 4.79073603 104.75645074 4.78555872 108.54394531 4.78027344 C109.29794775 4.7792242 110.05195018 4.77817495 110.82880117 4.77709392 C123.02765435 4.75970223 135.2264319 4.72817138 147.42524026 4.69138882 C159.94808126 4.65394493 172.47088272 4.63175687 184.99377739 4.62364602 C192.71727208 4.61816538 200.440553 4.60087324 208.16398187 4.56833413 C214.09246065 4.54463386 220.02083051 4.54218886 225.94935799 4.54756927 C228.37690736 4.54647031 230.80446496 4.53853341 233.23196602 4.5231781 C236.55247097 4.50320717 239.87206947 4.50808748 243.19259644 4.51898193 C244.14787794 4.50733057 245.10315944 4.4956792 246.08738887 4.48367476 C254.09963214 4.55448078 260.54905676 6.74361404 267.25 11.125 C275.23893629 19.47706976 277.37508492 27.09916371 277.28125 38.3828125 C276.67827068 46.13779654 273.63567699 52.60935244 268 58 C260.26724806 63.34377166 254.83997421 65.13903501 245.48219299 65.20532227 C244.61406744 65.2151992 243.7459419 65.22507614 242.85150951 65.23525238 C239.93692308 65.2670485 237.02232124 65.29178117 234.10766602 65.31640625 C232.01981791 65.33744315 229.9319731 65.35880836 227.84413147 65.38047791 C220.98078736 65.44941696 214.11737221 65.50718773 207.25390625 65.5625 C206.0854412 65.57195648 204.91697614 65.58141296 203.71310306 65.59115601 C192.6883251 65.679497 181.66351648 65.76277183 170.63862705 65.83596802 C156.5492901 65.92993343 142.46057283 66.04723754 128.37170655 66.19613171 C118.4590993 66.29890598 108.54650341 66.37450178 98.6335215 66.43025684 C92.71672436 66.46428514 86.80058546 66.51020916 80.88415718 66.58547974 C75.31170118 66.65582352 69.74001395 66.69235242 64.16713524 66.70364571 C62.12938437 66.71354163 60.09164842 66.73539211 58.05417633 66.77052116 C45.75723646 66.97431109 37.32931177 66.29221025 27 59 C26.34790338 58.58235382 25.69580675 58.16470764 25.02394962 57.73440552 C13.57913783 50.2523365 3.74527661 39.9647655 0.34375 26.37890625 C-0.17360441 21.29354753 -0.10338513 16.23249684 -0.0625 11.125 C-0.05798828 10.05507812 -0.05347656 8.98515625 -0.04882812 7.8828125 C-0.03709749 5.25515014 -0.02068228 2.62760462 0 0 Z " fill="#1C213F" transform="translate(210,190)"/>
<path d="M0 0 C1.08333333 0.8125 2.16666667 1.625 3.25 2.4375 C3.98476562 2.98535156 4.71953125 3.53320312 5.4765625 4.09765625 C7.23383278 5.42240954 8.97773691 6.76500164 10.7109375 8.12109375 C36.09665171 27.75588879 67.70845333 37.78846833 98.05761719 47.09570312 C103.88309696 48.88607627 109.70139554 50.69958836 115.51974487 52.51296997 C117.64079629 53.17296743 119.76283525 53.82970824 121.88500977 54.48608398 C128.32883543 56.48613601 134.72063098 58.52533211 141 61 C141 61.33 141 61.66 141 62 C115.61751785 62.09350415 90.23506157 62.16400909 64.85244179 62.20724869 C53.06644554 62.22786058 41.2805564 62.25595505 29.49462891 62.30175781 C19.22019992 62.34166747 8.94584851 62.36744279 -1.32865584 62.37635398 C-6.76730113 62.38156169 -12.20572449 62.39377335 -17.64429855 62.42292023 C-22.76769478 62.45015443 -27.89077852 62.45842878 -33.01424026 62.45243073 C-34.89029897 62.45352738 -36.76636859 62.46143336 -38.6423645 62.4768219 C-49.61197478 62.5623587 -58.16070793 62.19683832 -67.75 56.3125 C-74.48146336 49.39405154 -78.264798 41.99185639 -78.375 32.25 C-78.25029929 23.81488783 -76.20003227 16.03246383 -70 10 C-60.86501028 3.0308587 -53.73694813 1.70469189 -42.3828125 1.8046875 C-41.17051971 1.8075174 -39.95822693 1.81034729 -38.709198 1.81326294 C-34.84769711 1.82443333 -30.98643047 1.84953263 -27.125 1.875 C-24.50260752 1.88503384 -21.8802114 1.89415898 -19.2578125 1.90234375 C-12.83846211 1.92436242 -6.4192478 1.95780902 0 2 C0 1.34 0 0.68 0 0 Z " fill="#171C35" transform="translate(191,275)"/>
<path d="M0 0 C21.89678167 0.06055681 43.79344503 0.1380726 65.69009399 0.23571491 C75.85735029 0.28065876 86.02457167 0.32007672 96.19189453 0.34643555 C105.05490336 0.36942701 113.91780155 0.40283795 122.78072262 0.44870156 C127.47251458 0.47261823 132.16419708 0.49135722 136.85604858 0.49761391 C141.27525852 0.50367177 145.69418843 0.52369703 150.1132946 0.55427551 C151.73214713 0.56304448 153.35103627 0.56678069 154.96991158 0.56500816 C167.57843637 0.55556465 175.35278265 1.6822904 184.79296875 10.5859375 C191.28115561 17.68275074 192.377405 25.38499337 192.2734375 34.6796875 C191.58158193 43.08079088 187.05497294 49.36346015 181 55 C170.03106051 63.50740582 157.14818415 62.82346488 143.859375 63.29223633 C141.45904281 63.38884061 139.05964026 63.51242398 136.66210938 63.66333008 C115.58253194 64.97718225 115.58253194 64.97718225 110.14770508 60.27294922 C107.27883694 57.14036218 105.18469771 53.62922311 103 50 C98.88882393 45.74718729 93.81372686 42.42091583 89 39 C87.96875 38.25363281 86.9375 37.50726563 85.875 36.73828125 C60.10050794 19.14466351 29.590638 9.88432616 0 1 C0 0.67 0 0.34 0 0 Z " fill="#1A1F3C" transform="translate(307,276)"/>
<path d="M0 0 C5.17404497 5.00932819 8.7504085 9.54343403 9.875 16.75 C11.38224595 24.68348839 14.27068892 29.3585742 20 35 C19.20485867 35.00423194 18.40971733 35.00846388 17.5904808 35.01282406 C-1.74678739 35.11607697 -21.08401851 35.22470671 -40.42122269 35.33933926 C-49.77250163 35.39464441 -59.12378439 35.44812198 -68.47509766 35.49731445 C-76.62460134 35.54018944 -84.77407724 35.58647583 -92.92353797 35.63687855 C-97.23958697 35.66345275 -101.55563056 35.68830519 -105.87171173 35.70907402 C-109.93295632 35.72867045 -113.99414816 35.75282325 -118.05534554 35.78049088 C-119.54688368 35.78984538 -121.0384334 35.7975264 -122.52998924 35.80341911 C-124.56487697 35.81170739 -126.59973475 35.82657289 -128.63458252 35.84178162 C-130.34358671 35.85146044 -130.34358671 35.85146044 -132.08711624 35.8613348 C-134.57054576 35.97955622 -136.63436602 36.27633754 -139 37 C-134.3118926 21.11252491 -125.47214543 8.41726977 -111 0 C-81.70568605 -15.69457002 -28.14869192 -22.61383677 0 0 Z " fill="#1D2341" transform="translate(353,138)"/>
<path d="M0 0 C9.36283555 0.0381565 18.7252278 0.09766196 28.08774471 0.18390274 C32.43587113 0.22329487 36.78379754 0.2555236 41.13208008 0.27099609 C45.33392485 0.28621751 49.53521945 0.32075911 53.73681831 0.36830902 C55.33420574 0.38306658 56.93167175 0.39103777 58.52912712 0.39188385 C70.56734641 0.40466419 79.20511838 1.74803781 88.27734375 10.20703125 C95.22702891 17.44037703 96.48215693 24.81801534 96.30859375 34.52734375 C95.54680179 43.09991406 91.09601397 49.15577791 85 55 C79.10212211 59.48238719 74.50529951 61.25413272 67.09838867 61.22705078 C66.08779892 61.22748886 66.08779892 61.22748886 65.05679321 61.22793579 C62.84371786 61.22654938 60.63098484 61.21102111 58.41796875 61.1953125 C56.87811975 61.19157991 55.33826837 61.1887341 53.79841614 61.18673706 C49.75584292 61.17911994 45.71341461 61.15948808 41.67089844 61.1373291 C37.5416866 61.11682918 33.41245124 61.10772649 29.28320312 61.09765625 C21.18873577 61.07624026 13.09438594 61.04212766 5 61 C5.41137207 60.53601807 5.82274414 60.07203613 6.24658203 59.59399414 C6.78653809 58.97645264 7.32649414 58.35891113 7.8828125 57.72265625 C8.41793457 57.11429932 8.95305664 56.50594238 9.50439453 55.87915039 C15.06560132 48.89178365 14.65397854 40.54843375 14 32 C12.43769817 20.06830267 6.09777471 10.13020895 0 0 Z " fill="#1F2547" transform="translate(396,112)"/>
<path d="M0 0 C-0.00112793 0.67764404 -0.00225586 1.35528809 -0.00341797 2.0534668 C0.04293052 14.00432437 0.26882909 25.64615885 3.625 37.1875 C3.84816895 37.9611792 4.07133789 38.7348584 4.30126953 39.53198242 C6.77734879 47.32974759 10.46056532 54.64279625 14 62 C8.48578166 61.98045691 2.973132 61.92836853 -2.54052734 61.84741211 C-4.41218497 61.82435896 -6.28396998 61.80986646 -8.15576172 61.80444336 C-20.09720896 61.76304634 -29.46378105 61.68366865 -38.875 53.5 C-39.57625 52.675 -40.2775 51.85 -41 51 C-41.70125 50.236875 -42.4025 49.47375 -43.125 48.6875 C-48.51555418 40.96103901 -48.94075967 33.21117432 -48 24 C-45.62429626 14.80176244 -41.13343352 9.48447183 -33.31640625 4.33203125 C-28.87446213 1.77772611 -25.20658576 0.74472598 -20.078125 0.5859375 C-18.41716797 0.52792969 -18.41716797 0.52792969 -16.72265625 0.46875 C-15.57667969 0.4378125 -14.43070313 0.406875 -13.25 0.375 C-11.50783203 0.31699219 -11.50783203 0.31699219 -9.73046875 0.2578125 C-1.85797991 0 -1.85797991 0 0 0 Z " fill="#1A1F38" transform="translate(161,194)"/>
<path d="M0 0 C4.51746943 0.0195944 9.03311154 0.07183026 13.54980469 0.15258789 C15.0819255 0.17559222 16.61420051 0.19012184 18.14648438 0.19555664 C27.41126337 0.23486543 35.035189 0.71599713 43 6 C44.36125 6.8353125 44.36125 6.8353125 45.75 7.6875 C52.68961651 14.81988363 55.29574681 22.31880538 55.31689453 32.09375 C55.15387018 40.48246005 52.50134691 47.32747199 46.765625 53.46875 C37.8683296 61.18498848 28.38075567 62.30766583 17.0625 62.125 C15.99708984 62.11597656 14.93167969 62.10695313 13.83398438 62.09765625 C11.22241966 62.07423414 8.61133063 62.04143452 6 62 C6.02094727 60.9076001 6.04189453 59.8152002 6.06347656 58.68969727 C6.13709456 54.55035048 6.18223161 50.41105842 6.21972656 46.27124023 C6.23956981 44.49574994 6.26665345 42.72032249 6.30175781 40.94506836 C6.58185858 26.39218581 4.74232718 13.79622461 0 0 Z " fill="#181D36" transform="translate(432,358)"/>
</svg>
